<?xml version="1.0" standalone="no"?>
<!DOCTYPE svg PUBLIC "-//W3C//DTD SVG 20010904//EN"
 "http://www.w3.org/TR/2001/REC-SVG-20010904/DTD/svg10.dtd">
<svg version="1.0" xmlns="http://www.w3.org/2000/svg"
 width="512.000000pt" height="512.000000pt" viewBox="0 0 512.000000 512.000000"
 preserveAspectRatio="xMidYMid meet">

<g transform="translate(0.000000,512.000000) scale(0.100000,-0.100000)"
fill="#000000" stroke="none">
<path d="M2475 5097 c-84 -40 -2378 -1278 -2407 -1298 -33 -24 -68 -95 -68
-137 0 -17 7 -49 15 -69 16 -37 43 -52 1280 -706 l1265 -669 1265 669 1264
668 17 42 c36 91 -1 172 -104 232 -37 21 -588 318 -1225 661 -1278 688 -1205
654 -1302 607z"/>
<path d="M261 2810 c-101 -55 -193 -108 -204 -117 -28 -25 -57 -92 -57 -133 0
-19 8 -50 18 -69 15 -30 135 -96 1280 -702 l1262 -668 1263 668 c1144 606
1264 672 1279 702 35 67 10 164 -53 211 -43 31 -373 208 -389 208 -6 0 -440
-227 -963 -504 -1175 -622 -1085 -576 -1137 -576 -52 0 38 -46 -1137 576 -523
277 -957 504 -965 504 -7 0 -96 -45 -197 -100z"/>
<path d="M268 1717 c-103 -56 -198 -113 -212 -126 -78 -73 -68 -208 19 -273
12 -9 564 -309 1226 -665 1179 -635 1205 -648 1259 -648 54 0 79 13 1215 624
638 343 1190 641 1227 662 73 43 107 86 115 149 7 50 -17 117 -55 152 -15 14
-111 71 -214 127 l-187 101 -1023 -542 c-993 -527 -1025 -542 -1078 -542 -53
0 -85 16 -1078 542 -563 298 -1024 542 -1025 541 -1 0 -86 -46 -189 -102z"/>
</g>
</svg>
